<svg width="216" height="33" viewBox="0 0 216 33" fill="none" xmlns="http://www.w3.org/2000/svg">
<path d="M12.4483 24.4768L4.42326 14.7673V24.4768H0V2.68496H4.42326V12.457L12.4483 2.68496H17.7878L8.68854 13.4872L18.0406 24.4768H12.4483Z" fill="#101010"/>
<path d="M19.8126 15.7663C19.8126 14.018 20.1601 12.4674 20.8552 11.1145C21.5714 9.76159 22.5297 8.72091 23.7303 7.99243C24.952 7.26395 26.3106 6.89972 27.806 6.89972C29.1119 6.89972 30.2494 7.15989 31.2183 7.68023C32.2082 8.20057 32.9981 8.8562 33.5879 9.64711V7.1807H38.0427V24.4768H33.5879V21.948C33.0192 22.7597 32.2293 23.4361 31.2183 23.9773C30.2283 24.4976 29.0804 24.7578 27.7744 24.7578C26.3 24.7578 24.952 24.3832 23.7303 23.6339C22.5297 22.8846 21.5714 21.8335 20.8552 20.4806C20.1601 19.1069 19.8126 17.5355 19.8126 15.7663ZM33.5879 15.8288C33.5879 14.7673 33.3772 13.8619 32.956 13.1126C32.5347 12.3425 31.966 11.7597 31.2499 11.3642C30.5337 10.948 29.7649 10.7398 28.9434 10.7398C28.122 10.7398 27.3637 10.9376 26.6686 11.333C25.9735 11.7285 25.4048 12.3113 24.9625 13.0814C24.5413 13.8307 24.3306 14.7256 24.3306 15.7663C24.3306 16.807 24.5413 17.7228 24.9625 18.5137C25.4048 19.2838 25.9735 19.877 26.6686 20.2933C27.3848 20.7096 28.143 20.9177 28.9434 20.9177C29.7649 20.9177 30.5337 20.72 31.2499 20.3245C31.966 19.9082 32.5347 19.3254 32.956 18.5762C33.3772 17.8061 33.5879 16.8903 33.5879 15.8288Z" fill="#101010"/>
<path d="M49.2188 6.89972C50.5248 6.89972 51.6727 7.15989 52.6627 7.68023C53.6526 8.17975 54.432 8.83538 55.0007 9.64711V7.1807H59.4555V24.6017C59.4555 26.2043 59.129 27.6301 58.4761 28.8789C57.8231 30.1485 56.8437 31.1476 55.5378 31.8761C54.2319 32.6254 52.6521 33 50.7986 33C48.3131 33 46.27 32.4276 44.6692 31.2829C43.0895 30.1381 42.1943 28.5771 41.9837 26.5998H46.3753C46.607 27.3907 47.102 28.0151 47.8603 28.473C48.6396 28.9517 49.5769 29.1911 50.6722 29.1911C51.957 29.1911 52.9997 28.8061 53.8001 28.0359C54.6005 27.2867 55.0007 26.1419 55.0007 24.6017V21.9167C54.432 22.7285 53.6421 23.4049 52.6311 23.9461C51.6411 24.4872 50.5037 24.7578 49.2188 24.7578C47.7444 24.7578 46.3964 24.3832 45.1747 23.6339C43.9531 22.8846 42.9842 21.8335 42.268 20.4806C41.5729 19.1069 41.2254 17.5355 41.2254 15.7663C41.2254 14.018 41.5729 12.4674 42.268 11.1145C42.9842 9.76159 43.9425 8.72091 45.1431 7.99243C46.3648 7.26395 47.7234 6.89972 49.2188 6.89972ZM55.0007 15.8288C55.0007 14.7673 54.79 13.8619 54.3688 13.1126C53.9475 12.3425 53.3788 11.7597 52.6627 11.3642C51.9465 10.948 51.1777 10.7398 50.3563 10.7398C49.5348 10.7398 48.7765 10.9376 48.0814 11.333C47.3863 11.7285 46.8176 12.3113 46.3753 13.0814C45.9541 13.8307 45.7434 14.7256 45.7434 15.7663C45.7434 16.807 45.9541 17.7228 46.3753 18.5137C46.8176 19.2838 47.3863 19.877 48.0814 20.2933C48.7976 20.7096 49.5559 20.9177 50.3563 20.9177C51.1777 20.9177 51.9465 20.72 52.6627 20.3245C53.3788 19.9082 53.9475 19.3254 54.3688 18.5762C54.79 17.8061 55.0007 16.8903 55.0007 15.8288Z" fill="#101010"/>
<path d="M67.8197 20.8865H75.6236V24.4768H62.7962V20.9489L70.4421 10.771H62.8278V7.1807H75.5288V10.7086L67.8197 20.8865Z" fill="#101010"/>
<path d="M81.2916 5.12015C80.5123 5.12015 79.8593 4.8808 79.3328 4.40208C78.8272 3.90255 78.5745 3.28855 78.5745 2.56008C78.5745 1.8316 78.8272 1.228 79.3328 0.74929C79.8593 0.249763 80.5123 0 81.2916 0C82.071 0 82.7134 0.249763 83.2189 0.74929C83.7455 1.228 84.0088 1.8316 84.0088 2.56008C84.0088 3.28855 83.7455 3.90255 83.2189 4.40208C82.7134 4.8808 82.071 5.12015 81.2916 5.12015ZM83.4717 7.1807V24.4768H79.0484V7.1807H83.4717Z" fill="#101010"/>
<path d="M90.0851 5.12015C89.3057 5.12015 88.6528 4.8808 88.1262 4.40208C87.6207 3.90255 87.3679 3.28855 87.3679 2.56008C87.3679 1.8316 87.6207 1.228 88.1262 0.74929C88.6528 0.249763 89.3057 0 90.0851 0C90.8644 0 91.5068 0.249763 92.0124 0.74929C92.5389 1.228 92.8022 1.8316 92.8022 2.56008C92.8022 3.28855 92.5389 3.90255 92.0124 4.40208C91.5068 4.8808 90.8644 5.12015 90.0851 5.12015ZM92.2651 7.1807V24.4768H87.8419V7.1807H92.2651Z" fill="#101010"/>
<path d="M106.335 6.93094C108.42 6.93094 110.105 7.58657 111.39 8.89782C112.675 10.1883 113.317 11.9991 113.317 14.3302V24.4768H108.894V14.9234C108.894 13.5497 108.546 12.4986 107.851 11.7701C107.156 11.0208 106.208 10.6462 105.008 10.6462C103.786 10.6462 102.817 11.0208 102.101 11.7701C101.406 12.4986 101.059 13.5497 101.059 14.9234V24.4768H96.6353V7.1807H101.059V9.33491C101.648 8.58562 102.396 8.00284 103.302 7.58657C104.229 7.14948 105.24 6.93094 106.335 6.93094Z" fill="#101010"/>
<path d="M125.549 10.771H122.484V24.4768H117.998V10.771H116.007V7.1807H117.998V6.30653C117.998 4.18354 118.608 2.62252 119.83 1.62346C121.052 0.624409 122.895 0.156103 125.359 0.218544V3.90255C124.285 3.88174 123.537 4.05866 123.116 4.4333C122.695 4.80795 122.484 5.48439 122.484 6.46263V7.1807H125.549V10.771Z" fill="#101010"/>
<path d="M136.187 24.7578C134.502 24.7578 132.986 24.3936 131.638 23.6651C130.29 22.9158 129.226 21.8647 128.447 20.5118C127.688 19.1589 127.309 17.5979 127.309 15.8288C127.309 14.0596 127.699 12.4986 128.478 11.1457C129.279 9.79281 130.363 8.75213 131.733 8.02365C133.102 7.27436 134.629 6.89972 136.314 6.89972C137.999 6.89972 139.526 7.27436 140.895 8.02365C142.264 8.75213 143.338 9.79281 144.118 11.1457C144.918 12.4986 145.318 14.0596 145.318 15.8288C145.318 17.5979 144.908 19.1589 144.086 20.5118C143.286 21.8647 142.19 22.9158 140.8 23.6651C139.431 24.3936 137.894 24.7578 136.187 24.7578ZM136.187 20.9489C136.988 20.9489 137.736 20.7616 138.431 20.3869C139.147 19.9915 139.715 19.4087 140.137 18.6386C140.558 17.8685 140.769 16.9319 140.769 15.8288C140.769 14.1845 140.326 12.9253 139.442 12.0511C138.578 11.1561 137.514 10.7086 136.251 10.7086C134.987 10.7086 133.923 11.1561 133.06 12.0511C132.217 12.9253 131.796 14.1845 131.796 15.8288C131.796 17.473 132.206 18.7427 133.028 19.6377C133.87 20.5118 134.924 20.9489 136.187 20.9489Z" fill="#101010"/>
<path d="M153.713 10.771V19.1381C153.713 19.7209 153.85 20.1476 154.124 20.4182C154.418 20.6679 154.903 20.7928 155.577 20.7928H157.631V24.4768H154.85C151.122 24.4768 149.258 22.6868 149.258 19.1069V10.771H147.173V7.1807H149.258V2.9035H153.713V7.1807H157.631V10.771H153.713Z" fill="#101010"/>
<path d="M177.083 15.4541C177.083 16.0785 177.041 16.6405 176.957 17.14H164.161C164.266 18.3888 164.709 19.3671 165.488 20.0747C166.267 20.7824 167.226 21.1362 168.363 21.1362C170.006 21.1362 171.175 20.439 171.87 19.0445H176.641C176.135 20.7096 175.167 22.0833 173.734 23.1656C172.302 24.2271 170.543 24.7578 168.458 24.7578C166.773 24.7578 165.256 24.3936 163.908 23.6651C162.581 22.9158 161.539 21.8647 160.78 20.5118C160.043 19.1589 159.675 17.5979 159.675 15.8288C159.675 14.0388 160.043 12.4674 160.78 11.1145C161.518 9.76159 162.55 8.72091 163.877 7.99243C165.204 7.26395 166.731 6.89972 168.458 6.89972C170.122 6.89972 171.607 7.25355 172.913 7.96121C174.24 8.66887 175.261 9.67833 175.977 10.9896C176.715 12.28 177.083 13.7682 177.083 15.4541ZM172.502 14.2053C172.481 13.0814 172.07 12.1864 171.27 11.5203C170.469 10.8335 169.49 10.4901 168.332 10.4901C167.236 10.4901 166.309 10.8231 165.551 11.4891C164.814 12.1343 164.361 13.0397 164.193 14.2053H172.502Z" fill="#101010"/>
<path d="M179.174 15.8288C179.174 14.0388 179.543 12.4778 180.28 11.1457C181.017 9.79281 182.039 8.75213 183.345 8.02365C184.651 7.27436 186.146 6.89972 187.831 6.89972C190.001 6.89972 191.791 7.44087 193.202 8.52318C194.635 9.58467 195.593 11.0833 196.078 13.0189H191.307C191.054 12.2696 190.622 11.6868 190.011 11.2706C189.422 10.8335 188.684 10.6149 187.8 10.6149C186.536 10.6149 185.535 11.0728 184.798 11.9886C184.061 12.8836 183.692 14.1637 183.692 15.8288C183.692 17.473 184.061 18.7531 184.798 19.6689C185.535 20.5639 186.536 21.0114 187.8 21.0114C189.59 21.0114 190.759 20.2204 191.307 18.6386H196.078C195.593 20.5118 194.635 22 193.202 23.1031C191.77 24.2062 189.98 24.7578 187.831 24.7578C186.146 24.7578 184.651 24.3936 183.345 23.6651C182.039 22.9158 181.017 21.8751 180.28 20.543C179.543 19.1902 179.174 17.6187 179.174 15.8288Z" fill="#101010"/>
<path d="M209.176 6.93094C210.503 6.93094 211.682 7.22233 212.714 7.80511C213.746 8.36708 214.547 9.21003 215.115 10.334C215.705 11.4371 216 12.7692 216 14.3302V24.4768H211.577V14.9234C211.577 13.5497 211.229 12.4986 210.534 11.7701C209.839 11.0208 208.891 10.6462 207.691 10.6462C206.469 10.6462 205.5 11.0208 204.784 11.7701C204.089 12.4986 203.741 13.5497 203.741 14.9234V24.4768H199.318V1.3737H203.741V9.33491C204.31 8.58562 205.068 8.00284 206.016 7.58657C206.964 7.14948 208.017 6.93094 209.176 6.93094Z" fill="#101010"/>
</svg>
